<svg version="1.1" id="Layer_1" xmlns="http://www.w3.org/2000/svg" xmlns:xlink="http://www.w3.org/1999/xlink" x="0px" y="0px"
	 width="100%" viewBox="0 0 920 566" enable-background="new 0 0 920 566" xml:space="preserve">
<path fill="#000000" opacity="1.000000" stroke="none" 
	d="
M521.000000,567.000000 
	C347.333344,567.000000 174.166672,567.000000 1.000000,567.000000 
	C1.000000,378.333344 1.000000,189.666672 1.000000,1.000000 
	C307.666656,1.000000 614.333313,1.000000 921.000000,1.000000 
	C921.000000,189.666672 921.000000,378.333344 921.000000,567.000000 
	C787.833313,567.000000 654.666687,567.000000 521.000000,567.000000 
M287.591553,141.999893 
	C263.514832,142.058029 246.843399,167.202469 253.627518,189.291504 
	C258.223541,204.256165 275.519775,219.202820 295.877289,215.075974 
	C317.622009,210.667908 329.143311,191.873810 325.646698,171.637955 
	C322.632385,154.193192 306.065765,140.600494 287.591553,141.999893 
M161.427902,210.059479 
	C169.288498,214.991974 177.536469,217.015564 186.941895,215.108353 
	C201.334381,212.189880 210.976913,203.996887 215.777832,190.374146 
	C220.666946,176.501129 217.255783,163.772324 207.601547,153.315002 
	C191.825623,136.226715 164.033646,138.301636 150.449524,157.119675 
	C143.514420,166.726852 142.257538,177.625198 145.126816,188.818497 
	C147.423767,197.779099 152.685211,204.984406 161.427902,210.059479 
M146.040466,267.839264 
	C145.360275,272.986450 144.074951,278.137146 144.104706,283.280212 
	C144.233124,305.477692 165.080902,322.334961 188.330399,317.635315 
	C206.122894,314.038666 219.741760,298.037415 217.154083,276.046265 
	C214.662689,254.873383 191.705231,239.039536 170.361664,245.886627 
	C159.164520,249.478745 151.019669,256.247986 146.040466,267.839264 
M429.575745,159.127121 
	C421.204193,147.340302 410.128357,141.241348 395.336700,141.938721 
	C373.821014,142.953094 357.433472,163.359467 361.266418,185.283783 
	C364.757690,205.253799 384.323120,219.152832 404.488403,215.053986 
	C415.957794,212.722687 424.320282,206.513046 430.115143,196.497192 
	C437.225891,184.206955 436.049408,172.000397 429.575745,159.127121 
M434.999481,278.756409 
	C434.665009,276.840179 434.299255,274.928772 434.000977,273.006927 
	C431.577484,257.392151 411.540436,242.068954 395.904053,244.025055 
	C374.718231,246.675369 360.127777,261.972260 360.948975,283.027191 
	C361.784515,304.450226 381.283325,322.605286 405.496429,317.550964 
	C423.270233,313.840851 434.861450,300.079834 434.999481,278.756409 
M283.522827,244.999161 
	C269.473907,246.979568 259.990051,255.132538 254.822495,267.840424 
	C249.949066,279.824982 251.514450,291.488068 258.877167,302.453644 
	C273.388885,324.066498 306.876770,323.644104 320.958496,300.515778 
	C331.074768,283.900391 326.453400,259.707947 308.076569,249.602997 
	C300.738403,245.567917 293.037872,242.689789 283.522827,244.999161 
M403.001282,347.037323 
	C397.515533,347.658081 391.769470,347.437958 386.588043,349.041840 
	C361.082794,356.937012 351.684875,388.968384 371.263947,409.646759 
	C382.671875,421.695221 400.763397,425.101746 416.319489,416.002197 
	C431.272705,407.255310 438.697388,388.645294 432.933075,372.384125 
	C428.054993,358.622955 417.868561,350.655396 403.001282,347.037323 
M261.012054,360.478699 
	C243.966522,379.990570 252.880997,409.023804 275.276825,418.123901 
	C289.459290,423.886658 302.190338,421.308441 313.437622,411.858704 
	C324.192352,402.822784 328.592987,390.314606 325.610535,376.911957 
	C321.392395,357.955902 305.866211,345.435547 285.658691,347.144379 
	C276.112061,347.951660 267.788116,352.319611 261.012054,360.478699 
M217.992111,381.773560 
	C216.597260,375.475189 215.265549,369.272858 211.406296,363.743744 
	C202.562881,351.073822 188.948044,344.877899 175.007111,347.257294 
	C157.321335,350.275787 143.000748,366.078552 143.789612,385.709991 
	C144.488052,403.091461 159.014587,419.117706 176.352844,420.895416 
	C198.344086,423.150146 217.731842,406.368683 217.992111,381.773560 
M459.000000,378.500000 
	C459.000000,395.487366 458.901001,412.475891 459.106720,429.460785 
	C459.137604,432.011017 460.593994,434.543976 461.418884,437.173859 
	C466.869232,435.028870 467.003357,431.432281 467.003204,427.747589 
	C466.999115,330.320007 467.007446,232.892426 466.953094,135.464874 
	C466.951843,133.225479 466.551208,130.872528 465.759705,128.792145 
	C465.320038,127.636604 463.715118,126.287140 462.577698,126.232788 
	C461.640900,126.188019 460.187134,127.753830 459.739227,128.907440 
	C459.113892,130.518143 459.027191,132.409485 459.026520,134.180878 
	C458.996002,215.287247 459.000000,296.393616 459.000000,378.500000 
M548.999756,376.682739 
	C548.187134,375.457245 547.430542,373.218994 546.552795,373.170410 
	C540.794800,372.851898 535.010559,373.006287 528.960388,373.006287 
	C529.067200,375.326019 529.146729,377.053650 529.248230,379.257324 
	C533.403625,379.257324 537.131836,379.257324 540.816650,379.257324 
	C540.816650,385.723114 540.816650,391.686401 540.816650,397.624939 
	C538.321716,398.350983 536.041443,399.369904 533.675354,399.641479 
	C523.566467,400.801544 513.494873,400.705292 506.969818,391.269562 
	C501.282196,383.044708 500.818481,373.620911 502.987823,364.000000 
	C505.272675,353.866577 510.751923,348.060913 521.182251,347.175140 
	C529.591736,346.461029 538.139954,347.379761 546.879822,347.579865 
	C546.967407,346.577850 547.149170,344.499359 547.428223,341.306824 
	C538.544678,340.879730 529.392029,339.979370 520.258301,340.141388 
	C512.487122,340.279297 506.160461,344.231171 500.953430,350.075531 
	C492.624054,359.424347 493.145844,370.872986 494.404846,381.835236 
	C495.038147,387.349335 498.811890,392.931427 502.334290,397.601166 
	C511.365723,409.574249 536.624695,407.346527 547.284302,401.802765 
	C548.304504,401.272217 548.887512,399.068695 548.924561,397.622620 
	C549.095093,390.968018 548.999878,384.306610 548.999756,376.682739 
M534.926758,295.687653 
	C537.136780,303.877716 537.136780,303.877716 543.872620,302.314880 
	C543.897522,302.150330 543.985901,301.964203 543.938293,301.824310 
	C536.956543,281.292114 530.056458,260.730560 522.762329,240.309769 
	C522.289246,238.985321 518.831482,238.459244 516.671204,238.082092 
	C514.596802,237.719894 512.843628,237.819443 511.853668,240.824097 
	C505.069794,261.413269 497.963226,281.896088 490.938660,302.477600 
	C495.803741,303.902832 499.025665,303.137299 500.061951,297.669098 
	C500.629486,294.674377 501.738556,291.713745 503.068604,288.962585 
	C503.680420,287.697174 505.385651,286.169647 506.636505,286.131836 
	C514.934998,285.881042 523.244751,286.002014 531.484253,286.002014 
	C532.552185,289.191498 533.523987,292.093933 534.926758,295.687653 
M515.527588,183.000000 
	C520.843445,183.000000 526.159363,183.000000 531.645386,183.000000 
	C532.812439,187.072815 533.845154,190.963669 535.045349,194.802155 
	C537.164795,201.580704 537.207520,201.567337 544.344421,200.545319 
	C540.787903,189.796005 537.304443,178.999710 533.639343,168.265411 
	C529.985352,157.563660 526.149292,146.924088 522.302429,136.000015 
	C521.100769,136.000015 519.754028,136.174042 518.468018,135.968262 
	C514.138916,135.275558 512.212830,137.077499 510.894257,141.303085 
	C507.034882,153.671280 502.620270,165.866257 498.419922,178.127991 
	C495.872253,185.565216 493.318573,193.000397 490.761871,200.453201 
	C496.066925,201.982864 499.374237,200.998093 500.035278,195.447784 
	C500.127747,194.671127 500.675568,193.959076 500.929993,193.189789 
	C504.299896,183.001221 504.296234,183.000000 515.527588,183.000000 
M675.484985,298.010193 
	C682.365234,290.997986 683.497009,282.826263 682.200195,273.227509 
	C679.696350,254.694107 658.523254,250.810257 647.077698,258.344940 
	C637.853699,264.417236 636.415955,273.610504 637.111877,283.349335 
	C637.745422,292.214874 641.981018,299.615448 650.613708,302.640228 
	C659.105103,305.615479 667.719055,305.031982 675.484985,298.010193 
M664.771423,397.955048 
	C660.152222,394.114838 658.238220,389.306396 659.323486,383.000000 
	C667.494080,383.000000 675.449890,383.000214 683.405640,382.999939 
	C690.763916,382.999664 692.555969,380.656738 690.728760,373.399902 
	C690.533936,372.626221 690.201538,371.886932 690.010376,371.112579 
	C688.238098,363.931274 684.209961,358.408478 676.746826,357.183868 
	C668.799805,355.879883 661.255493,357.583679 656.117371,364.662506 
	C651.478638,371.053406 650.053345,378.512634 651.168457,386.067688 
	C652.071594,392.186462 653.590515,398.269501 659.546570,402.325348 
	C667.277405,407.589661 675.354431,405.982788 683.659180,405.212799 
	C688.026733,404.807831 688.530640,402.878326 687.600647,398.929108 
	C686.304443,399.161896 685.103699,399.470764 683.885010,399.580627 
	C677.689209,400.139191 671.383667,401.936249 664.771423,397.955048 
M586.646729,357.196991 
	C580.232483,357.465027 573.804871,357.580566 567.415771,358.137177 
	C566.220520,358.241272 565.179199,360.111816 564.066833,361.167175 
	C565.516174,362.106842 566.950806,363.813019 568.417542,363.841064 
	C572.663635,363.922211 576.925842,363.365051 581.175720,362.990509 
	C586.044189,362.561401 588.032959,365.755707 588.874512,369.631653 
	C589.445068,372.259644 588.983459,375.111725 588.983459,377.736023 
	C579.666748,378.484985 570.883118,378.147400 563.445923,383.822144 
	C559.408020,386.903107 557.101746,392.447968 558.467529,396.982483 
	C560.418213,403.458832 563.667053,406.455261 570.081970,405.852417 
	C576.262573,405.271667 582.328979,403.475403 588.976074,402.103638 
	C589.184631,402.590149 589.862427,404.170990 590.716370,406.162628 
	C592.610413,405.699249 594.577759,405.217957 596.000000,404.869995 
	C596.000000,393.317200 596.078247,382.213318 595.969360,371.111298 
	C595.908508,364.908844 593.473145,360.059692 586.646729,357.196991 
M752.071533,412.675201 
	C759.397461,394.680023 766.723450,376.684845 774.070496,358.637817 
	C767.387451,357.370087 767.334778,357.347992 765.064270,362.759918 
	C763.622498,366.196411 762.333313,369.698456 761.032593,373.192261 
	C758.079468,381.123901 755.161499,389.068573 752.086243,397.395233 
	C747.580750,386.074219 743.116699,375.358856 739.081299,364.484436 
	C737.327454,359.758270 735.195679,356.587311 729.255615,358.366272 
	C734.057312,369.981750 738.780884,381.672302 743.727295,393.267792 
	C746.403076,399.540375 749.711609,405.675812 744.987854,412.326477 
	C742.401733,415.967560 739.594238,419.451385 736.652344,423.313568 
	C737.211670,424.335236 738.211060,426.160706 739.307983,428.164429 
	C745.169678,424.295532 749.796631,419.923676 752.071533,412.675201 
M587.001160,258.835907 
	C587.001160,273.445251 587.001160,288.054596 587.001160,302.694244 
	C589.595703,302.694244 591.647217,302.694244 594.000000,302.694244 
	C594.000000,294.087494 594.761108,285.692749 593.791870,277.502777 
	C592.766052,268.834259 596.332275,264.374634 603.974609,262.012573 
	C605.514038,261.536743 607.074829,261.125305 608.636963,260.728210 
	C613.700745,259.441010 617.793457,262.310028 617.956543,267.542450 
	C618.138000,273.367493 617.999512,279.202454 617.999878,285.033112 
	C618.000183,290.969147 618.000000,296.905151 618.000000,302.805847 
	C620.617981,302.805847 622.566528,302.805847 624.987366,302.805847 
	C624.987366,290.337494 625.498352,278.026367 624.789856,265.785828 
	C624.384460,258.782379 619.998169,254.016602 612.901550,255.030685 
	C609.722351,255.484985 606.499390,255.992569 603.462769,256.985260 
	C600.337830,258.006805 597.415649,259.648560 593.831482,261.279877 
	C593.326294,258.951630 592.929016,257.120911 592.419495,254.772797 
	C590.464233,255.908264 588.736511,256.911591 587.001160,258.835907 
M702.000000,273.669067 
	C700.847473,268.298462 703.580627,265.516205 708.330261,263.915283 
	C711.231445,262.937439 713.978882,261.469299 716.911926,260.627594 
	C721.760681,259.236176 725.963440,262.588531 725.988220,267.692627 
	C726.030334,276.351044 725.999939,285.009857 726.000000,293.668488 
	C726.000000,296.742676 726.000000,299.816833 726.000000,302.754974 
	C728.719482,302.754974 730.659302,302.754974 732.995850,302.754974 
	C732.995850,290.396362 733.401733,278.258698 732.837158,266.166382 
	C732.519958,259.371979 728.267090,253.695129 720.808289,255.092407 
	C714.568054,256.261414 708.479187,258.238586 701.989685,259.945618 
	C701.726074,259.142242 701.131348,257.329559 700.566895,255.609161 
	C698.830505,255.819885 697.110962,256.028564 695.221558,256.257874 
	C695.221558,271.719177 695.221558,287.136444 695.221558,302.747437 
	C697.499634,302.747437 699.552734,302.747437 702.000000,302.747437 
	C702.000000,293.211151 702.000000,283.921234 702.000000,273.669067 
M551.310425,153.000961 
	C549.906067,153.094162 548.501648,153.187378 546.633240,153.311386 
	C547.555664,155.774918 548.300232,157.716766 549.011658,159.670670 
	C553.718567,172.598267 558.330200,185.562347 563.260620,198.404037 
	C563.740295,199.653412 566.171570,200.818512 567.701660,200.824524 
	C569.457520,200.831451 572.269836,199.948624 572.807861,198.681473 
	C576.474915,190.045563 579.650391,181.201492 583.011780,172.435074 
	C585.421814,166.149872 587.874207,159.880966 590.318420,153.577148 
	C585.117737,151.931671 582.751648,153.461945 581.216370,158.232056 
	C577.302917,170.391464 572.808167,182.363785 568.400208,194.823044 
	C567.856689,193.415680 567.375854,192.284851 566.979065,191.125229 
	C562.998779,179.490326 559.081238,167.833389 554.991150,156.237335 
	C554.548950,154.983810 553.128723,154.075272 551.310425,153.000961 
M632.008362,335.931732 
	C632.008362,358.814178 632.008362,381.696625 632.008362,404.741760 
	C634.516235,404.741760 636.567200,404.741760 638.807007,404.741760 
	C638.807007,380.789429 638.807007,357.094208 638.807007,332.429382 
	C636.259277,333.407196 634.160645,334.212646 632.008362,335.931732 
M611.000000,340.648682 
	C611.000000,362.024017 611.000000,383.399353 611.000000,405.048218 
	C613.339722,404.934235 615.063843,404.850250 616.760864,404.767609 
	C616.760864,380.599304 616.760864,356.891479 616.760864,333.177826 
	C611.016174,333.355377 611.016174,333.355377 611.000000,340.648682 
M709.000000,395.457428 
	C709.000122,389.310242 708.888184,383.160461 709.029846,377.016541 
	C709.193115,369.935577 717.580139,362.258209 723.966797,363.555023 
	C724.500244,361.463409 725.038025,359.354980 725.507141,357.515564 
	C718.138245,354.721436 714.107971,359.996857 709.250854,364.963989 
	C709.066528,361.961151 708.959045,360.209839 708.837891,358.236176 
	C706.589050,358.236176 704.510315,358.236176 702.790283,358.236176 
	C702.790283,373.854950 702.790283,389.293091 702.790283,405.039886 
	C705.301270,404.929657 707.023743,404.854034 709.000000,404.767273 
	C709.000000,401.719086 709.000000,399.081085 709.000000,395.457428 
M572.680115,261.000488 
	C577.194153,261.236115 577.185791,258.478271 576.813232,255.609711 
	C569.450806,252.503311 565.771423,257.850708 561.563538,261.795563 
	C560.908386,259.408905 560.337219,257.328064 559.839539,255.515213 
	C557.605896,255.835968 555.899902,256.080963 554.736450,256.248016 
	C554.736450,271.954681 554.736450,287.283539 554.736450,302.732300 
	C557.196350,302.732300 558.917664,302.732300 561.000000,302.732300 
	C561.000000,293.689484 560.996948,284.906952 561.000977,276.124420 
	C561.004089,269.191406 565.203613,263.349701 572.680115,261.000488 
M606.000000,193.423706 
	C606.000000,179.812881 606.000000,166.202057 606.000000,152.575668 
	C603.557739,152.835571 601.389648,153.066299 599.298096,153.288895 
	C599.298096,169.332352 599.298096,185.036758 599.298096,200.661194 
	C601.653931,200.661194 603.705444,200.661194 606.000000,200.661194 
	C606.000000,198.350113 606.000000,196.375183 606.000000,193.423706 
M600.668030,142.937286 
	C603.496155,144.880219 605.848267,143.755981 607.070312,141.181183 
	C607.699341,139.855743 607.406311,137.052719 606.433655,136.256607 
	C605.056824,135.129608 602.221863,134.316788 600.796997,135.003220 
	C597.177979,136.746643 597.423340,139.699142 600.668030,142.937286 
z"/>
<path fill="#FD8AB0" opacity="1.000000" stroke="none" 
	d="
M288.064209,141.999893 
	C306.065765,140.600494 322.632385,154.193192 325.646698,171.637955 
	C329.143311,191.873810 317.622009,210.667908 295.877289,215.075974 
	C275.519775,219.202820 258.223541,204.256165 253.627518,189.291504 
	C246.843399,167.202469 263.514832,142.058029 288.064209,141.999893 
z"/>
<path fill="#FD8AB0" opacity="1.000000" stroke="none" 
	d="
M161.058487,210.008621 
	C152.685211,204.984406 147.423767,197.779099 145.126816,188.818497 
	C142.257538,177.625198 143.514420,166.726852 150.449524,157.119675 
	C164.033646,138.301636 191.825623,136.226715 207.601547,153.315002 
	C217.255783,163.772324 220.666946,176.501129 215.777832,190.374146 
	C210.976913,203.996887 201.334381,212.189880 186.941895,215.108353 
	C177.536469,217.015564 169.288498,214.991974 161.058487,210.008621 
z"/>
<path fill="#FD8AB0" opacity="1.000000" stroke="none" 
	d="
M146.209564,267.476135 
	C151.019669,256.247986 159.164520,249.478745 170.361664,245.886627 
	C191.705231,239.039536 214.662689,254.873383 217.154083,276.046265 
	C219.741760,298.037415 206.122894,314.038666 188.330399,317.635315 
	C165.080902,322.334961 144.233124,305.477692 144.104706,283.280212 
	C144.074951,278.137146 145.360275,272.986450 146.209564,267.476135 
z"/>
<path fill="#FD8AB0" opacity="1.000000" stroke="none" 
	d="
M429.756165,159.461884 
	C436.049408,172.000397 437.225891,184.206955 430.115143,196.497192 
	C424.320282,206.513046 415.957794,212.722687 404.488403,215.053986 
	C384.323120,219.152832 364.757690,205.253799 361.266418,185.283783 
	C357.433472,163.359467 373.821014,142.953094 395.336700,141.938721 
	C410.128357,141.241348 421.204193,147.340302 429.756165,159.461884 
z"/>
<path fill="#FD8AB0" opacity="1.000000" stroke="none" 
	d="
M434.999756,279.212311 
	C434.861450,300.079834 423.270233,313.840851 405.496429,317.550964 
	C381.283325,322.605286 361.784515,304.450226 360.948975,283.027191 
	C360.127777,261.972260 374.718231,246.675369 395.904053,244.025055 
	C411.540436,242.068954 431.577484,257.392151 434.000977,273.006927 
	C434.299255,274.928772 434.665009,276.840179 434.999756,279.212311 
z"/>
<path fill="#FD8AB0" opacity="1.000000" stroke="none" 
	d="
M283.961517,244.995972 
	C293.037872,242.689789 300.738403,245.567917 308.076569,249.602997 
	C326.453400,259.707947 331.074768,283.900391 320.958496,300.515778 
	C306.876770,323.644104 273.388885,324.066498 258.877167,302.453644 
	C251.514450,291.488068 249.949066,279.824982 254.822495,267.840424 
	C259.990051,255.132538 269.473907,246.979568 283.961517,244.995972 
z"/>
<path fill="#FD8AB0" opacity="1.000000" stroke="none" 
	d="
M403.420288,347.186096 
	C417.868561,350.655396 428.054993,358.622955 432.933075,372.384125 
	C438.697388,388.645294 431.272705,407.255310 416.319489,416.002197 
	C400.763397,425.101746 382.671875,421.695221 371.263947,409.646759 
	C351.684875,388.968384 361.082794,356.937012 386.588043,349.041840 
	C391.769470,347.437958 397.515533,347.658081 403.420288,347.186096 
z"/>
<path fill="#FD8AB0" opacity="1.000000" stroke="none" 
	d="
M261.274475,360.219818 
	C267.788116,352.319611 276.112061,347.951660 285.658691,347.144379 
	C305.866211,345.435547 321.392395,357.955902 325.610535,376.911957 
	C328.592987,390.314606 324.192352,402.822784 313.437622,411.858704 
	C302.190338,421.308441 289.459290,423.886658 275.276825,418.123901 
	C252.880997,409.023804 243.966522,379.990570 261.274475,360.219818 
z"/>
<path fill="#FD8AB0" opacity="1.000000" stroke="none" 
	d="
M217.995651,382.220001 
	C217.731842,406.368683 198.344086,423.150146 176.352844,420.895416 
	C159.014587,419.117706 144.488052,403.091461 143.789612,385.709991 
	C143.000748,366.078552 157.321335,350.275787 175.007111,347.257294 
	C188.948044,344.877899 202.562881,351.073822 211.406296,363.743744 
	C215.265549,369.272858 216.597260,375.475189 217.995651,382.220001 
z"/>
<path fill="#E19073" opacity="1.000000" stroke="none" 
	d="
M459.000000,378.000000 
	C459.000000,296.393616 458.996002,215.287247 459.026520,134.180878 
	C459.027191,132.409485 459.113892,130.518143 459.739227,128.907440 
	C460.187134,127.753830 461.640900,126.188019 462.577698,126.232788 
	C463.715118,126.287140 465.320038,127.636604 465.759705,128.792145 
	C466.551208,130.872528 466.951843,133.225479 466.953094,135.464874 
	C467.007446,232.892426 466.999115,330.320007 467.003204,427.747589 
	C467.003357,431.432281 466.869232,435.028870 461.418884,437.173859 
	C460.593994,434.543976 459.137604,432.011017 459.106720,429.460785 
	C458.901001,412.475891 459.000000,395.487366 459.000000,378.000000 
z"/>
<path fill="#E19073" opacity="1.000000" stroke="none" 
	d="
M548.999878,377.165192 
	C548.999878,384.306610 549.095093,390.968018 548.924561,397.622620 
	C548.887512,399.068695 548.304504,401.272217 547.284302,401.802765 
	C536.624695,407.346527 511.365723,409.574249 502.334290,397.601166 
	C498.811890,392.931427 495.038147,387.349335 494.404846,381.835236 
	C493.145844,370.872986 492.624054,359.424347 500.953430,350.075531 
	C506.160461,344.231171 512.487122,340.279297 520.258301,340.141388 
	C529.392029,339.979370 538.544678,340.879730 547.428223,341.306824 
	C547.149170,344.499359 546.967407,346.577850 546.879822,347.579865 
	C538.139954,347.379761 529.591736,346.461029 521.182251,347.175140 
	C510.751923,348.060913 505.272675,353.866577 502.987823,364.000000 
	C500.818481,373.620911 501.282196,383.044708 506.969818,391.269562 
	C513.494873,400.705292 523.566467,400.801544 533.675354,399.641479 
	C536.041443,399.369904 538.321716,398.350983 540.816650,397.624939 
	C540.816650,391.686401 540.816650,385.723114 540.816650,379.257324 
	C537.131836,379.257324 533.403625,379.257324 529.248230,379.257324 
	C529.146729,377.053650 529.067200,375.326019 528.960388,373.006287 
	C535.010559,373.006287 540.794800,372.851898 546.552795,373.170410 
	C547.430542,373.218994 548.187134,375.457245 548.999878,377.165192 
z"/>
<path fill="#E19073" opacity="1.000000" stroke="none" 
	d="
M534.711304,295.342010 
	C533.523987,292.093933 532.552185,289.191498 531.484253,286.002014 
	C523.244751,286.002014 514.934998,285.881042 506.636505,286.131836 
	C505.385651,286.169647 503.680420,287.697174 503.068604,288.962585 
	C501.738556,291.713745 500.629486,294.674377 500.061951,297.669098 
	C499.025665,303.137299 495.803741,303.902832 490.938660,302.477600 
	C497.963226,281.896088 505.069794,261.413269 511.853668,240.824097 
	C512.843628,237.819443 514.596802,237.719894 516.671204,238.082092 
	C518.831482,238.459244 522.289246,238.985321 522.762329,240.309769 
	C530.056458,260.730560 536.956543,281.292114 543.938293,301.824310 
	C543.985901,301.964203 543.897522,302.150330 543.872620,302.314880 
	C537.136780,303.877716 537.136780,303.877716 534.711304,295.342010 
M508.001465,273.467896 
	C507.496002,275.240265 506.990540,277.012665 506.473297,278.826416 
	C514.118408,278.826416 521.404236,278.826416 529.005005,278.826416 
	C525.343811,267.438538 521.764221,256.304535 517.882019,244.229172 
	C514.354858,254.456436 511.214630,263.561859 508.001465,273.467896 
z"/>
<path fill="#E19073" opacity="1.000000" stroke="none" 
	d="
M515.034058,183.000000 
	C504.296234,183.000000 504.299896,183.001221 500.929993,193.189789 
	C500.675568,193.959076 500.127747,194.671127 500.035278,195.447784 
	C499.374237,200.998093 496.066925,201.982864 490.761871,200.453201 
	C493.318573,193.000397 495.872253,185.565216 498.419922,178.127991 
	C502.620270,165.866257 507.034882,153.671280 510.894257,141.303085 
	C512.212830,137.077499 514.138916,135.275558 518.468018,135.968262 
	C519.754028,136.174042 521.100769,136.000015 522.302429,136.000015 
	C526.149292,146.924088 529.985352,157.563660 533.639343,168.265411 
	C537.304443,178.999710 540.787903,189.796005 544.344421,200.545319 
	C537.207520,201.567337 537.164795,201.580704 535.045349,194.802155 
	C533.845154,190.963669 532.812439,187.072815 531.645386,183.000000 
	C526.159363,183.000000 520.843445,183.000000 515.034058,183.000000 
M523.504456,159.003647 
	C521.699768,153.689163 519.895081,148.374695 518.090393,143.060211 
	C517.735107,143.077316 517.379883,143.094421 517.024597,143.111542 
	C513.474243,154.193619 509.923920,165.275696 506.259857,176.712738 
	C514.659363,176.712738 521.734619,176.712738 529.299072,176.712738 
	C528.292847,173.560608 527.406494,170.808990 526.536682,168.052170 
	C525.658813,165.269897 524.797363,162.482468 523.504456,159.003647 
z"/>
<path fill="#E19073" opacity="1.000000" stroke="none" 
	d="
M675.228271,298.274841 
	C667.719055,305.031982 659.105103,305.615479 650.613708,302.640228 
	C641.981018,299.615448 637.745422,292.214874 637.111877,283.349335 
	C636.415955,273.610504 637.853699,264.417236 647.077698,258.344940 
	C658.523254,250.810257 679.696350,254.694107 682.200195,273.227509 
	C683.497009,282.826263 682.365234,290.997986 675.228271,298.274841 
M660.444702,298.000000 
	C669.533508,297.979156 674.545959,293.189972 674.977173,283.965668 
	C675.125122,280.800873 675.050293,277.622375 674.988281,274.451843 
	C674.891724,269.517456 670.463501,262.726624 665.845947,261.466858 
	C660.157959,259.915039 653.902283,258.936768 649.647400,264.148926 
	C647.013733,267.375153 644.893005,271.711426 644.326233,275.796906 
	C642.927307,285.880035 646.177917,298.970428 660.444702,298.000000 
z"/>
<path fill="#E19073" opacity="1.000000" stroke="none" 
	d="
M665.155518,398.028870 
	C671.383667,401.936249 677.689209,400.139191 683.885010,399.580627 
	C685.103699,399.470764 686.304443,399.161896 687.600647,398.929108 
	C688.530640,402.878326 688.026733,404.807831 683.659180,405.212799 
	C675.354431,405.982788 667.277405,407.589661 659.546570,402.325348 
	C653.590515,398.269501 652.071594,392.186462 651.168457,386.067688 
	C650.053345,378.512634 651.478638,371.053406 656.117371,364.662506 
	C661.255493,357.583679 668.799805,355.879883 676.746826,357.183868 
	C684.209961,358.408478 688.238098,363.931274 690.010376,371.112579 
	C690.201538,371.886932 690.533936,372.626221 690.728760,373.399902 
	C692.555969,380.656738 690.763916,382.999664 683.405640,382.999939 
	C675.449890,383.000214 667.494080,383.000000 659.323486,383.000000 
	C658.238220,389.306396 660.152222,394.114838 665.155518,398.028870 
M664.794067,365.040100 
	C660.837341,368.356750 659.316528,372.678986 659.036804,377.733826 
	C667.651428,377.733826 675.744141,377.733826 683.839233,377.733826 
	C683.461670,365.208191 676.637024,359.359589 664.794067,365.040100 
z"/>
<path fill="#E19073" opacity="1.000000" stroke="none" 
	d="
M586.958008,357.481689 
	C593.473145,360.059692 595.908508,364.908844 595.969360,371.111298 
	C596.078247,382.213318 596.000000,393.317200 596.000000,404.869995 
	C594.577759,405.217957 592.610413,405.699249 590.716370,406.162628 
	C589.862427,404.170990 589.184631,402.590149 588.976074,402.103638 
	C582.328979,403.475403 576.262573,405.271667 570.081970,405.852417 
	C563.667053,406.455261 560.418213,403.458832 558.467529,396.982483 
	C557.101746,392.447968 559.408020,386.903107 563.445923,383.822144 
	C570.883118,378.147400 579.666748,378.484985 588.983459,377.736023 
	C588.983459,375.111725 589.445068,372.259644 588.874512,369.631653 
	C588.032959,365.755707 586.044189,362.561401 581.175720,362.990509 
	C576.925842,363.365051 572.663635,363.922211 568.417542,363.841064 
	C566.950806,363.813019 565.516174,362.106842 564.066833,361.167175 
	C565.179199,360.111816 566.220520,358.241272 567.415771,358.137177 
	C573.804871,357.580566 580.232483,357.465027 586.958008,357.481689 
M567.531311,398.881561 
	C572.691040,401.712616 577.925293,400.473755 582.804199,398.476593 
	C585.207947,397.492645 587.932373,395.242310 588.746094,392.940765 
	C589.771790,390.039581 588.993469,386.500580 588.993469,382.429993 
	C583.358398,383.320282 578.317505,383.689178 573.521606,384.973419 
	C566.106018,386.959076 564.311096,391.087616 567.531311,398.881561 
z"/>
<path fill="#E19073" opacity="1.000000" stroke="none" 
	d="
M752.036926,413.062744 
	C749.796631,419.923676 745.169678,424.295532 739.307983,428.164429 
	C738.211060,426.160706 737.211670,424.335236 736.652344,423.313568 
	C739.594238,419.451385 742.401733,415.967560 744.987854,412.326477 
	C749.711609,405.675812 746.403076,399.540375 743.727295,393.267792 
	C738.780884,381.672302 734.057312,369.981750 729.255615,358.366272 
	C735.195679,356.587311 737.327454,359.758270 739.081299,364.484436 
	C743.116699,375.358856 747.580750,386.074219 752.086243,397.395233 
	C755.161499,389.068573 758.079468,381.123901 761.032593,373.192261 
	C762.333313,369.698456 763.622498,366.196411 765.064270,362.759918 
	C767.334778,357.347992 767.387451,357.370087 774.070496,358.637817 
	C766.723450,376.684845 759.397461,394.680023 752.036926,413.062744 
z"/>
<path fill="#E19073" opacity="1.000000" stroke="none" 
	d="
M587.005005,258.375427 
	C588.736511,256.911591 590.464233,255.908264 592.419495,254.772797 
	C592.929016,257.120911 593.326294,258.951630 593.831482,261.279877 
	C597.415649,259.648560 600.337830,258.006805 603.462769,256.985260 
	C606.499390,255.992569 609.722351,255.484985 612.901550,255.030685 
	C619.998169,254.016602 624.384460,258.782379 624.789856,265.785828 
	C625.498352,278.026367 624.987366,290.337494 624.987366,302.805847 
	C622.566528,302.805847 620.617981,302.805847 618.000000,302.805847 
	C618.000000,296.905151 618.000183,290.969147 617.999878,285.033112 
	C617.999512,279.202454 618.138000,273.367493 617.956543,267.542450 
	C617.793457,262.310028 613.700745,259.441010 608.636963,260.728210 
	C607.074829,261.125305 605.514038,261.536743 603.974609,262.012573 
	C596.332275,264.374634 592.766052,268.834259 593.791870,277.502777 
	C594.761108,285.692749 594.000000,294.087494 594.000000,302.694244 
	C591.647217,302.694244 589.595703,302.694244 587.001160,302.694244 
	C587.001160,288.054596 587.001160,273.445251 587.005005,258.375427 
z"/>
<path fill="#E19073" opacity="1.000000" stroke="none" 
	d="
M702.000000,274.150208 
	C702.000000,283.921234 702.000000,293.211151 702.000000,302.747437 
	C699.552734,302.747437 697.499634,302.747437 695.221558,302.747437 
	C695.221558,287.136444 695.221558,271.719177 695.221558,256.257874 
	C697.110962,256.028564 698.830505,255.819885 700.566895,255.609161 
	C701.131348,257.329559 701.726074,259.142242 701.989685,259.945618 
	C708.479187,258.238586 714.568054,256.261414 720.808289,255.092407 
	C728.267090,253.695129 732.519958,259.371979 732.837158,266.166382 
	C733.401733,278.258698 732.995850,290.396362 732.995850,302.754974 
	C730.659302,302.754974 728.719482,302.754974 726.000000,302.754974 
	C726.000000,299.816833 726.000000,296.742676 726.000000,293.668488 
	C725.999939,285.009857 726.030334,276.351044 725.988220,267.692627 
	C725.963440,262.588531 721.760681,259.236176 716.911926,260.627594 
	C713.978882,261.469299 711.231445,262.937439 708.330261,263.915283 
	C703.580627,265.516205 700.847473,268.298462 702.000000,274.150208 
z"/>
<path fill="#E19073" opacity="1.000000" stroke="none" 
	d="
M551.736328,153.003830 
	C553.128723,154.075272 554.548950,154.983810 554.991150,156.237335 
	C559.081238,167.833389 562.998779,179.490326 566.979065,191.125229 
	C567.375854,192.284851 567.856689,193.415680 568.400208,194.823044 
	C572.808167,182.363785 577.302917,170.391464 581.216370,158.232056 
	C582.751648,153.461945 585.117737,151.931671 590.318420,153.577148 
	C587.874207,159.880966 585.421814,166.149872 583.011780,172.435074 
	C579.650391,181.201492 576.474915,190.045563 572.807861,198.681473 
	C572.269836,199.948624 569.457520,200.831451 567.701660,200.824524 
	C566.171570,200.818512 563.740295,199.653412 563.260620,198.404037 
	C558.330200,185.562347 553.718567,172.598267 549.011658,159.670670 
	C548.300232,157.716766 547.555664,155.774918 546.633240,153.311386 
	C548.501648,153.187378 549.906067,153.094162 551.736328,153.003830 
z"/>
<path fill="#E19073" opacity="1.000000" stroke="none" 
	d="
M632.035217,335.474915 
	C634.160645,334.212646 636.259277,333.407196 638.807007,332.429382 
	C638.807007,357.094208 638.807007,380.789429 638.807007,404.741760 
	C636.567200,404.741760 634.516235,404.741760 632.008362,404.741760 
	C632.008362,381.696625 632.008362,358.814178 632.035217,335.474915 
z"/>
<path fill="#E19073" opacity="1.000000" stroke="none" 
	d="
M611.000000,340.172302 
	C611.016174,333.355377 611.016174,333.355377 616.760864,333.177826 
	C616.760864,356.891479 616.760864,380.599304 616.760864,404.767609 
	C615.063843,404.850250 613.339722,404.934235 611.000000,405.048218 
	C611.000000,383.399353 611.000000,362.024017 611.000000,340.172302 
z"/>
<path fill="#E19073" opacity="1.000000" stroke="none" 
	d="
M709.000000,395.950256 
	C709.000000,399.081085 709.000000,401.719086 709.000000,404.767273 
	C707.023743,404.854034 705.301270,404.929657 702.790283,405.039886 
	C702.790283,389.293091 702.790283,373.854950 702.790283,358.236176 
	C704.510315,358.236176 706.589050,358.236176 708.837891,358.236176 
	C708.959045,360.209839 709.066528,361.961151 709.250854,364.963989 
	C714.107971,359.996857 718.138245,354.721436 725.507141,357.515564 
	C725.038025,359.354980 724.500244,361.463409 723.966797,363.555023 
	C717.580139,362.258209 709.193115,369.935577 709.029846,377.016541 
	C708.888184,383.160461 709.000122,389.310242 709.000000,395.950256 
z"/>
<path fill="#E19073" opacity="1.000000" stroke="none" 
	d="
M572.269714,261.002747 
	C565.203613,263.349701 561.004089,269.191406 561.000977,276.124420 
	C560.996948,284.906952 561.000000,293.689484 561.000000,302.732300 
	C558.917664,302.732300 557.196350,302.732300 554.736450,302.732300 
	C554.736450,287.283539 554.736450,271.954681 554.736450,256.248016 
	C555.899902,256.080963 557.605896,255.835968 559.839539,255.515213 
	C560.337219,257.328064 560.908386,259.408905 561.563538,261.795563 
	C565.771423,257.850708 569.450806,252.503311 576.813232,255.609711 
	C577.185791,258.478271 577.194153,261.236115 572.269714,261.002747 
z"/>
<path fill="#E19073" opacity="1.000000" stroke="none" 
	d="
M606.000000,193.911987 
	C606.000000,196.375183 606.000000,198.350113 606.000000,200.661194 
	C603.705444,200.661194 601.653931,200.661194 599.298096,200.661194 
	C599.298096,185.036758 599.298096,169.332352 599.298096,153.288895 
	C601.389648,153.066299 603.557739,152.835571 606.000000,152.575668 
	C606.000000,166.202057 606.000000,179.812881 606.000000,193.911987 
z"/>
<path fill="#E19073" opacity="1.000000" stroke="none" 
	d="
M600.351562,142.724152 
	C597.423340,139.699142 597.177979,136.746643 600.796997,135.003220 
	C602.221863,134.316788 605.056824,135.129608 606.433655,136.256607 
	C607.406311,137.052719 607.699341,139.855743 607.070312,141.181183 
	C605.848267,143.755981 603.496155,144.880219 600.351562,142.724152 
z"/>
<path fill="#000000" opacity="1.000000" stroke="none" 
	d="
M508.037933,273.067566 
	C511.214630,263.561859 514.354858,254.456436 517.882019,244.229172 
	C521.764221,256.304535 525.343811,267.438538 529.005005,278.826416 
	C521.404236,278.826416 514.118408,278.826416 506.473297,278.826416 
	C506.990540,277.012665 507.496002,275.240265 508.037933,273.067566 
z"/>
<path fill="#000000" opacity="1.000000" stroke="none" 
	d="
M523.716553,159.350479 
	C524.797363,162.482468 525.658813,165.269897 526.536682,168.052170 
	C527.406494,170.808990 528.292847,173.560608 529.299072,176.712738 
	C521.734619,176.712738 514.659363,176.712738 506.259857,176.712738 
	C509.923920,165.275696 513.474243,154.193619 517.024597,143.111542 
	C517.379883,143.094421 517.735107,143.077316 518.090393,143.060211 
	C519.895081,148.374695 521.699768,153.689163 523.716553,159.350479 
z"/>
<path fill="#000000" opacity="1.000000" stroke="none" 
	d="
M659.998657,298.000000 
	C646.177917,298.970428 642.927307,285.880035 644.326233,275.796906 
	C644.893005,271.711426 647.013733,267.375153 649.647400,264.148926 
	C653.902283,258.936768 660.157959,259.915039 665.845947,261.466858 
	C670.463501,262.726624 674.891724,269.517456 674.988281,274.451843 
	C675.050293,277.622375 675.125122,280.800873 674.977173,283.965668 
	C674.545959,293.189972 669.533508,297.979156 659.998657,298.000000 
z"/>
<path fill="#000000" opacity="1.000000" stroke="none" 
	d="
M665.182617,364.958801 
	C676.637024,359.359589 683.461670,365.208191 683.839233,377.733826 
	C675.744141,377.733826 667.651428,377.733826 659.036804,377.733826 
	C659.316528,372.678986 660.837341,368.356750 665.182617,364.958801 
z"/>
<path fill="#000000" opacity="1.000000" stroke="none" 
	d="
M567.294434,398.545502 
	C564.311096,391.087616 566.106018,386.959076 573.521606,384.973419 
	C578.317505,383.689178 583.358398,383.320282 588.993469,382.429993 
	C588.993469,386.500580 589.771790,390.039581 588.746094,392.940765 
	C587.932373,395.242310 585.207947,397.492645 582.804199,398.476593 
	C577.925293,400.473755 572.691040,401.712616 567.294434,398.545502 
z"/>
</svg>