<svg xmlns="http://www.w3.org/2000/svg" id="canvas" viewBox="294.011 376.367 1192.227 173.110"><path d="M 326.58,388.67 C 325.71 389.37, 325.27 390.25, 324.65 392.45 C 324.02 394.65, 323.98 396.09, 323.47 399.68 C 322.96 403.26, 322.84 405.66, 322.09 410.38 C 321.35 415.09, 320.95 417.70, 319.76 423.26 C 318.57 428.81, 317.69 432.11, 316.14 438.16 C 314.59 444.21, 313.68 447.44, 312.01 453.50 C 310.34 459.55, 309.37 462.74, 307.78 468.43 C 306.19 474.12, 305.44 477.08, 304.08 481.95 C 302.72 486.81, 302.10 489.07, 300.98 492.77 C 299.86 496.47, 299.02 498.05, 298.48 500.45 C 297.94 502.85, 298.04 503.71, 298.28 504.77 C 298.53 505.83, 298.94 505.70, 299.70 505.77 C 300.46 505.83, 301.55 505.62, 302.09 505.08 C 302.63 504.55, 303.28 503.66, 302.40 503.09 C 301.52 502.51, 298.73 502.01, 297.70 502.20 C 296.68 502.40, 297.02 503.34, 297.29 504.05 C 297.56 504.76, 298.29 505.45, 299.06 505.78 C 299.82 506.11, 300.27 506.50, 301.12 505.71 C 301.98 504.91, 302.58 504.17, 303.35 501.78 C 304.11 499.40, 304.16 497.59, 304.96 493.79 C 305.76 489.99, 306.19 487.70, 307.34 482.78 C 308.49 477.87, 309.20 474.92, 310.70 469.22 C 312.20 463.52, 313.17 460.34, 314.85 454.28 C 316.54 448.23, 317.46 445.00, 319.12 438.95 C 320.78 432.91, 321.71 429.60, 323.14 424.06 C 324.58 418.51, 325.15 415.91, 326.30 411.22 C 327.45 406.54, 328.17 404.23, 328.91 400.62 C 329.65 397.02, 329.99 395.54, 330.01 393.21 C 330.03 390.87, 329.69 389.86, 329.00 388.95 C 328.31 388.04, 327.45 387.97, 326.58 388.67" style="stroke: black; fill: black;"/><path d="M 337.62,380.47 C 337.23 381.33, 337.24 381.83, 337.66 383.72 C 338.08 385.61, 338.41 386.79, 339.71 389.92 C 341.00 393.05, 342.31 395.00, 344.13 399.37 C 345.95 403.74, 346.97 406.54, 348.82 411.77 C 350.67 417.01, 351.65 419.94, 353.38 425.54 C 355.12 431.14, 355.87 434.08, 357.49 439.78 C 359.10 445.47, 359.89 448.48, 361.46 454.01 C 363.03 459.54, 363.91 462.42, 365.35 467.44 C 366.79 472.45, 367.48 474.90, 368.66 479.07 C 369.84 483.25, 370.25 485.19, 371.25 488.31 C 372.25 491.42, 372.64 492.98, 373.67 494.67 C 374.70 496.36, 375.42 496.83, 376.39 496.75 C 377.36 496.66, 378.10 495.66, 378.49 494.25 C 378.89 492.84, 379.17 491.18, 378.38 489.70 C 377.60 488.23, 376.08 487.04, 374.59 486.86 C 373.11 486.67, 371.66 487.46, 370.97 488.77 C 370.27 490.08, 370.43 491.98, 371.12 493.41 C 371.82 494.83, 373.26 495.29, 374.46 495.88 C 375.66 496.46, 376.43 496.88, 377.13 496.33 C 377.83 495.78, 378.23 495.05, 377.97 493.13 C 377.71 491.21, 376.95 489.77, 375.82 486.72 C 374.68 483.68, 373.75 481.96, 372.30 477.91 C 370.85 473.86, 370.13 471.42, 368.56 466.47 C 366.98 461.51, 366.07 458.65, 364.44 453.15 C 362.82 447.64, 362.02 444.66, 360.43 438.95 C 358.83 433.25, 358.09 430.28, 356.46 424.62 C 354.83 418.96, 353.90 416.00, 352.28 410.64 C 350.67 405.28, 349.80 402.41, 348.40 397.83 C 347.00 393.26, 346.46 390.99, 345.26 387.75 C 344.06 384.51, 343.55 383.31, 342.42 381.64 C 341.29 379.98, 340.58 379.67, 339.62 379.43 C 338.66 379.20, 338.01 379.61, 337.62 380.47" style="stroke: black; fill: black;"/><path d="M 304.73,458.90 C 304.85 459.52, 304.60 459.85, 305.37 460.50 C 306.14 461.15, 306.71 461.72, 308.59 462.15 C 310.48 462.59, 311.80 462.72, 314.81 462.68 C 317.83 462.64, 319.93 462.20, 323.68 461.93 C 327.43 461.67, 329.61 461.56, 333.55 461.37 C 337.49 461.18, 339.60 461.06, 343.37 460.96 C 347.14 460.86, 348.96 460.81, 352.39 460.86 C 355.82 460.91, 357.62 461.25, 360.52 461.21 C 363.42 461.17, 364.90 461.09, 366.89 460.66 C 368.89 460.23, 369.81 459.74, 370.51 459.04 C 371.20 458.35, 371.11 457.78, 370.37 457.20 C 369.63 456.61, 368.80 456.49, 366.83 456.11 C 364.86 455.73, 363.45 455.37, 360.54 455.31 C 357.63 455.25, 355.76 455.64, 352.30 455.81 C 348.84 455.99, 347.01 456.07, 343.24 456.18 C 339.46 456.29, 337.34 456.36, 333.43 456.36 C 329.51 456.35, 327.33 456.42, 323.67 456.17 C 320.01 455.92, 318.03 455.40, 315.13 455.11 C 312.23 454.82, 311.06 454.57, 309.17 454.71 C 307.29 454.86, 306.58 455.29, 305.69 455.83 C 304.81 456.36, 304.94 456.79, 304.75 457.40 C 304.56 458.01, 304.60 458.28, 304.73 458.90" style="stroke: black; fill: black;"/><path d="M 400.77,445.69 C 400.39 446.58, 400.55 447.25, 400.93 448.85 C 401.30 450.44, 401.61 451.42, 402.64 453.66 C 403.68 455.91, 404.67 457.23, 406.09 460.08 C 407.51 462.93, 408.31 464.63, 409.73 467.93 C 411.16 471.23, 411.92 473.30, 413.21 476.57 C 414.50 479.84, 414.99 481.41, 416.17 484.28 C 417.35 487.15, 417.72 488.70, 419.11 490.92 C 420.49 493.14, 421.31 494.27, 423.10 495.38 C 424.89 496.49, 426.12 496.75, 428.05 496.48 C 429.99 496.21, 431.00 495.65, 432.75 494.02 C 434.50 492.39, 435.30 491.10, 436.78 488.32 C 438.27 485.54, 438.70 483.55, 440.17 480.12 C 441.64 476.69, 442.43 474.65, 444.13 471.18 C 445.82 467.71, 446.87 465.90, 448.65 462.77 C 450.44 459.64, 451.49 458.08, 453.06 455.54 C 454.63 452.99, 455.33 451.83, 456.49 450.04 C 457.64 448.25, 458.17 447.63, 458.83 446.59 C 459.50 445.55, 459.48 445.40, 459.81 444.85 C 460.14 444.30, 460.45 444.31, 460.48 443.83 C 460.51 443.35, 460.42 442.77, 459.98 442.46 C 459.54 442.16, 459.14 442.13, 458.26 442.31 C 457.39 442.50, 456.85 442.49, 455.60 443.40 C 454.34 444.30, 453.47 444.97, 452.01 446.83 C 450.55 448.69, 449.84 450.00, 448.29 452.70 C 446.74 455.40, 445.99 457.10, 444.26 460.34 C 442.53 463.58, 441.47 465.43, 439.63 468.88 C 437.79 472.34, 436.83 474.39, 435.06 477.64 C 433.29 480.88, 432.14 482.54, 430.76 485.11 C 429.39 487.68, 428.91 488.95, 428.20 490.50 C 427.48 492.05, 427.64 492.58, 427.20 492.86 C 426.77 493.14, 426.65 492.86, 426.03 491.93 C 425.41 490.99, 425.01 490.15, 424.09 488.18 C 423.17 486.21, 422.60 484.78, 421.42 482.06 C 420.24 479.34, 419.49 477.83, 418.19 474.60 C 416.89 471.36, 416.17 469.29, 414.94 465.88 C 413.71 462.46, 413.20 460.61, 412.05 457.51 C 410.89 454.40, 410.43 452.63, 409.15 450.34 C 407.87 448.05, 406.90 447.25, 405.64 446.07 C 404.37 444.89, 403.81 444.50, 402.83 444.42 C 401.86 444.34, 401.15 444.81, 400.77 445.69" style="stroke: black; fill: black;"/><path d="M 478.41,451.06 C 477.54 451.62, 477.20 452.43, 476.60 454.09 C 476.00 455.74, 475.68 456.87, 475.42 459.34 C 475.16 461.82, 475.22 463.57, 475.31 466.46 C 475.39 469.35, 475.59 471.01, 475.83 473.81 C 476.08 476.61, 476.15 478.08, 476.55 480.47 C 476.96 482.85, 477.22 484.09, 477.85 485.74 C 478.48 487.39, 478.94 488.19, 479.70 488.73 C 480.46 489.26, 481.07 489.13, 481.64 488.43 C 482.20 487.72, 482.29 486.89, 482.53 485.20 C 482.77 483.51, 482.82 482.32, 482.86 479.98 C 482.90 477.64, 482.73 476.21, 482.72 473.48 C 482.71 470.76, 482.79 469.16, 482.80 466.37 C 482.82 463.58, 482.91 461.93, 482.80 459.55 C 482.68 457.18, 482.58 456.13, 482.21 454.48 C 481.84 452.83, 481.72 451.97, 480.96 451.29 C 480.20 450.61, 479.29 450.50, 478.41 451.06" style="stroke: black; fill: black;"/><path d="M 478.65,411.93 C 479.31 411.09, 479.56 410.09, 479.10 409.95 C 478.63 409.81, 477.37 410.55, 476.32 411.21 C 475.26 411.88, 474.16 412.74, 473.83 413.28 C 473.50 413.82, 473.65 414.18, 474.65 413.92 C 475.65 413.65, 478.01 412.62, 478.83 411.97 C 479.65 411.32, 479.37 410.66, 478.76 410.68 C 478.15 410.70, 476.76 411.35, 475.80 412.08 C 474.84 412.80, 473.98 413.89, 473.98 414.30 C 473.98 414.71, 474.87 414.59, 475.80 414.11 C 476.74 413.64, 477.99 412.76, 478.65 411.93" style="stroke: black; fill: black;"/><path d="M 613.89,414.32 C 612.92 414.95, 612.27 415.74, 611.40 418.05 C 610.54 420.36, 610.44 422.08, 609.55 425.85 C 608.65 429.62, 608.21 432.10, 606.91 436.90 C 605.62 441.71, 604.74 444.54, 603.06 449.87 C 601.38 455.20, 600.42 458.20, 598.51 463.54 C 596.60 468.88, 595.40 471.67, 593.51 476.59 C 591.62 481.50, 590.79 484.01, 589.05 488.11 C 587.31 492.22, 586.11 494.16, 584.81 497.11 C 583.52 500.06, 582.93 501.50, 582.58 502.85 C 582.23 504.21, 582.70 504.37, 583.08 503.88 C 583.46 503.40, 584.17 502.73, 584.50 500.41 C 584.83 498.09, 584.49 496.29, 584.75 492.27 C 585.00 488.25, 585.08 485.41, 585.79 480.32 C 586.50 475.24, 587.05 472.40, 588.29 466.86 C 589.53 461.31, 590.33 458.27, 592.00 452.59 C 593.67 446.92, 594.60 443.93, 596.65 438.49 C 598.70 433.04, 599.93 430.34, 602.26 425.35 C 604.58 420.37, 605.91 417.78, 608.27 413.54 C 610.63 409.30, 611.83 407.20, 614.06 404.15 C 616.28 401.10, 617.60 400.02, 619.40 398.28 C 621.20 396.55, 621.78 395.91, 623.04 395.48 C 624.31 395.05, 624.64 395.08, 625.71 396.15 C 626.79 397.21, 627.17 398.20, 628.43 400.80 C 629.69 403.41, 630.54 405.21, 632.02 409.16 C 633.49 413.11, 634.35 415.63, 635.80 420.55 C 637.25 425.48, 637.86 428.32, 639.25 433.77 C 640.63 439.22, 641.33 442.28, 642.73 447.80 C 644.12 453.32, 644.82 456.27, 646.21 461.37 C 647.61 466.47, 648.31 468.86, 649.68 473.30 C 651.05 477.73, 651.80 480.02, 653.08 483.54 C 654.35 487.06, 654.80 488.70, 656.06 490.91 C 657.31 493.12, 658.31 493.66, 659.37 494.58 C 660.43 495.50, 660.77 495.47, 661.35 495.51 C 661.94 495.54, 662.15 495.31, 662.30 494.78 C 662.44 494.25, 662.41 494.09, 662.09 492.85 C 661.76 491.60, 661.65 490.76, 660.67 488.56 C 659.69 486.37, 658.67 485.16, 657.17 481.87 C 655.67 478.58, 654.73 476.41, 653.18 472.13 C 651.63 467.85, 650.89 465.49, 649.44 460.46 C 647.98 455.44, 647.28 452.50, 645.90 447.00 C 644.53 441.50, 643.84 438.46, 642.57 432.97 C 641.30 427.48, 640.76 424.61, 639.54 419.55 C 638.33 414.50, 637.70 411.96, 636.48 407.70 C 635.27 403.43, 635.10 401.30, 633.49 398.23 C 631.87 395.17, 630.69 393.75, 628.42 392.40 C 626.15 391.04, 624.61 391.04, 622.12 391.48 C 619.63 391.92, 618.27 392.53, 615.98 394.61 C 613.68 396.68, 612.81 398.40, 610.65 401.85 C 608.49 405.31, 607.44 407.46, 605.18 411.90 C 602.92 416.34, 601.65 418.94, 599.37 424.04 C 597.09 429.14, 595.86 431.88, 593.79 437.41 C 591.72 442.94, 590.78 445.97, 589.02 451.70 C 587.26 457.43, 586.44 460.48, 584.99 466.06 C 583.54 471.64, 582.89 474.48, 581.76 479.60 C 580.64 484.73, 580.01 487.52, 579.38 491.69 C 578.75 495.87, 578.23 497.80, 578.62 500.48 C 579.01 503.16, 579.97 504.20, 581.33 505.11 C 582.69 506.01, 583.84 506.20, 585.42 505.00 C 587.01 503.80, 587.81 502.21, 589.24 499.11 C 590.68 496.00, 591.11 493.75, 592.60 489.48 C 594.08 485.21, 594.87 482.74, 596.68 477.78 C 598.48 472.81, 599.68 470.02, 601.62 464.66 C 603.57 459.31, 604.56 456.30, 606.42 450.99 C 608.29 445.69, 609.30 442.89, 610.94 438.14 C 612.58 433.39, 613.45 430.99, 614.61 427.23 C 615.77 423.48, 616.41 421.85, 616.73 419.37 C 617.05 416.90, 616.78 415.88, 616.21 414.87 C 615.64 413.86, 614.85 413.68, 613.89 414.32" style="stroke: black; fill: black;"/><path d="M 589.50,458.43 C 589.93 459.07, 590.08 459.14, 591.34 459.56 C 592.61 459.98, 593.31 460.52, 595.83 460.55 C 598.36 460.57, 600.04 459.88, 603.97 459.69 C 607.89 459.50, 610.48 459.58, 615.46 459.60 C 620.44 459.62, 623.46 459.65, 628.85 459.79 C 634.25 459.93, 637.06 460.06, 642.44 460.28 C 647.82 460.50, 650.77 460.58, 655.74 460.89 C 660.71 461.19, 663.18 461.42, 667.28 461.81 C 671.37 462.19, 673.15 462.60, 676.21 462.82 C 679.28 463.04, 680.58 463.00, 682.61 462.90 C 684.65 462.79, 685.57 462.78, 686.38 462.30 C 687.19 461.82, 687.32 461.20, 686.65 460.50 C 685.98 459.80, 685.06 459.32, 683.04 458.80 C 681.02 458.27, 679.65 458.09, 676.55 457.89 C 673.45 457.68, 671.65 457.89, 667.52 457.77 C 663.40 457.66, 660.91 457.50, 655.92 457.31 C 650.93 457.13, 647.96 457.08, 642.58 456.85 C 637.20 456.62, 634.39 456.46, 629.00 456.17 C 623.61 455.87, 620.62 455.75, 615.64 455.35 C 610.66 454.96, 608.09 454.57, 604.10 454.18 C 600.12 453.80, 598.33 453.31, 595.72 453.42 C 593.10 453.53, 592.33 454.14, 591.03 454.73 C 589.73 455.32, 589.52 455.63, 589.21 456.37 C 588.91 457.11, 589.08 457.79, 589.50 458.43" style="stroke: black; fill: black;"/><path d="M 691.71,454.07 C 690.90 454.93, 690.62 456.14, 690.27 458.26 C 689.93 460.38, 689.88 461.85, 689.99 464.66 C 690.10 467.47, 690.44 469.35, 690.82 472.30 C 691.20 475.24, 691.33 476.89, 691.88 479.39 C 692.42 481.90, 692.68 483.29, 693.55 484.82 C 694.43 486.35, 695.26 487.00, 696.26 487.05 C 697.27 487.10, 697.96 486.54, 698.59 485.08 C 699.23 483.62, 699.52 482.30, 699.42 479.75 C 699.32 477.20, 698.59 475.38, 698.08 472.33 C 697.57 469.28, 697.02 467.40, 696.88 464.48 C 696.74 461.57, 696.92 460.20, 697.36 457.77 C 697.80 455.33, 698.12 454.23, 699.08 452.33 C 700.03 450.43, 700.60 449.63, 702.14 448.25 C 703.69 446.86, 704.61 446.35, 706.82 445.40 C 709.02 444.45, 710.32 443.96, 713.15 443.50 C 715.99 443.04, 717.74 443.00, 720.99 443.10 C 724.24 443.20, 726.07 443.38, 729.40 444.01 C 732.74 444.63, 734.66 445.40, 737.66 446.23 C 740.66 447.05, 742.07 447.72, 744.39 448.14 C 746.72 448.56, 748.17 448.70, 749.28 448.33 C 750.40 447.97, 750.64 447.32, 749.99 446.33 C 749.34 445.35, 748.18 444.55, 746.03 443.42 C 743.88 442.29, 742.39 441.63, 739.25 440.69 C 736.12 439.75, 733.95 439.33, 730.34 438.72 C 726.74 438.11, 724.84 437.85, 721.24 437.65 C 717.63 437.44, 715.71 437.26, 712.32 437.69 C 708.94 438.12, 707.13 438.51, 704.31 439.79 C 701.50 441.08, 700.29 442.13, 698.26 444.12 C 696.22 446.11, 695.49 447.25, 694.14 449.74 C 692.79 452.22, 692.21 453.58, 691.51 456.53 C 690.81 459.48, 690.78 461.18, 690.65 464.50 C 690.53 467.82, 690.68 469.85, 690.87 473.13 C 691.06 476.40, 690.98 478.32, 691.60 480.87 C 692.23 483.42, 692.90 484.66, 694.00 485.88 C 695.09 487.09, 696.12 487.33, 697.06 486.93 C 698.00 486.53, 698.41 485.57, 698.70 483.88 C 698.99 482.18, 698.66 480.92, 698.51 478.46 C 698.35 475.99, 698.14 474.46, 697.93 471.57 C 697.71 468.69, 697.78 466.77, 697.42 464.03 C 697.06 461.29, 696.73 459.89, 696.11 457.88 C 695.50 455.86, 695.22 454.72, 694.34 453.96 C 693.46 453.20, 692.52 453.21, 691.71 454.07" style="stroke: black; fill: black;"/><path d="M 757.14,451.35 C 756.41 451.86, 756.12 452.30, 755.73 453.70 C 755.34 455.10, 755.22 456.15, 755.18 458.37 C 755.13 460.59, 755.23 462.10, 755.51 464.79 C 755.79 467.47, 756.19 469.24, 756.58 471.80 C 756.97 474.36, 756.99 475.63, 757.48 477.61 C 757.97 479.58, 758.19 480.70, 759.02 481.68 C 759.85 482.67, 760.60 482.81, 761.63 482.51 C 762.65 482.22, 763.33 481.71, 764.16 480.21 C 764.98 478.71, 765.32 477.47, 765.77 475.02 C 766.21 472.56, 765.90 470.76, 766.38 467.93 C 766.86 465.10, 767.14 463.45, 768.19 460.85 C 769.24 458.25, 769.97 456.95, 771.61 454.93 C 773.25 452.91, 774.29 452.08, 776.39 450.73 C 778.48 449.38, 779.70 448.87, 782.08 448.18 C 784.47 447.49, 785.85 447.24, 788.30 447.27 C 790.75 447.31, 792.04 447.57, 794.33 448.35 C 796.62 449.14, 797.83 449.74, 799.74 451.19 C 801.65 452.65, 802.45 453.53, 803.87 455.63 C 805.29 457.73, 805.96 459.15, 806.84 461.71 C 807.73 464.26, 807.80 465.74, 808.30 468.41 C 808.79 471.08, 809.11 472.57, 809.33 475.06 C 809.55 477.55, 809.18 478.76, 809.40 480.87 C 809.63 482.99, 809.94 484.15, 810.45 485.64 C 810.96 487.12, 811.26 487.80, 811.95 488.31 C 812.63 488.82, 813.26 488.77, 813.87 488.17 C 814.47 487.57, 814.67 486.81, 814.97 485.32 C 815.27 483.83, 815.25 482.87, 815.36 480.72 C 815.47 478.57, 815.71 477.27, 815.53 474.57 C 815.34 471.87, 815.02 470.20, 814.42 467.22 C 813.83 464.24, 813.65 462.66, 812.54 459.66 C 811.42 456.66, 810.68 454.87, 808.86 452.22 C 807.04 449.57, 805.92 448.35, 803.42 446.41 C 800.91 444.48, 799.35 443.60, 796.34 442.55 C 793.33 441.50, 791.56 441.19, 788.37 441.17 C 785.17 441.14, 783.41 441.49, 780.36 442.42 C 777.32 443.34, 775.81 444.04, 773.16 445.80 C 770.51 447.56, 769.21 448.70, 767.11 451.21 C 765.00 453.71, 764.15 455.32, 762.64 458.32 C 761.14 461.32, 760.60 463.09, 759.57 466.19 C 758.54 469.29, 757.78 471.13, 757.49 473.84 C 757.19 476.54, 757.54 478.00, 758.11 479.71 C 758.67 481.41, 759.34 482.02, 760.30 482.37 C 761.25 482.73, 762.17 482.54, 762.89 481.48 C 763.61 480.42, 763.75 479.14, 763.90 477.08 C 764.06 475.01, 763.75 473.74, 763.67 471.15 C 763.60 468.56, 763.69 466.83, 763.52 464.12 C 763.35 461.42, 763.31 459.84, 762.84 457.64 C 762.37 455.43, 761.88 454.40, 761.19 453.10 C 760.49 451.80, 760.20 451.50, 759.39 451.15 C 758.58 450.80, 757.88 450.84, 757.14 451.35" style="stroke: black; fill: black;"/><path d="M 875.79,455.45 C 876.05 454.38, 875.99 453.11, 874.92 451.54 C 873.85 449.96, 872.78 448.81, 870.42 447.58 C 868.06 446.34, 866.40 445.56, 863.13 445.36 C 859.86 445.16, 857.83 445.59, 854.07 446.56 C 850.31 447.52, 848.19 448.29, 844.33 450.18 C 840.47 452.06, 838.21 453.42, 834.77 455.97 C 831.33 458.52, 829.62 460.08, 827.12 462.94 C 824.63 465.79, 823.22 467.28, 822.29 470.24 C 821.37 473.21, 821.43 475.09, 822.48 477.74 C 823.54 480.39, 824.88 481.84, 827.56 483.49 C 830.23 485.14, 832.13 485.45, 835.84 486.00 C 839.55 486.55, 841.89 486.55, 846.12 486.25 C 850.35 485.94, 852.94 485.53, 857.00 484.46 C 861.06 483.40, 862.98 482.58, 866.41 480.91 C 869.83 479.25, 871.58 478.37, 874.11 476.15 C 876.65 473.92, 877.87 472.44, 879.09 469.79 C 880.31 467.14, 880.29 465.46, 880.22 462.89 C 880.15 460.33, 879.82 458.93, 878.74 456.98 C 877.66 455.02, 876.10 453.58, 874.82 453.12 C 873.55 452.67, 872.57 453.49, 872.36 454.70 C 872.15 455.91, 873.25 457.48, 873.76 459.16 C 874.28 460.84, 874.83 461.42, 874.93 463.10 C 875.02 464.77, 875.09 465.70, 874.23 467.52 C 873.36 469.34, 872.59 470.38, 870.60 472.20 C 868.60 474.01, 867.20 475.07, 864.24 476.60 C 861.29 478.13, 859.49 478.94, 855.81 479.87 C 852.13 480.79, 849.66 481.10, 845.84 481.25 C 842.02 481.39, 839.82 481.12, 836.70 480.59 C 833.59 480.05, 832.28 479.49, 830.27 478.57 C 828.25 477.64, 827.29 477.28, 826.65 475.96 C 826.01 474.64, 826.22 473.92, 827.06 471.96 C 827.91 470.01, 828.77 468.63, 830.87 466.19 C 832.98 463.75, 834.48 462.07, 837.58 459.74 C 840.69 457.42, 842.86 456.14, 846.38 454.57 C 849.91 453.00, 851.98 452.39, 855.20 451.88 C 858.41 451.37, 860.01 451.66, 862.47 452.03 C 864.93 452.39, 865.78 452.99, 867.49 453.70 C 869.20 454.41, 869.80 454.95, 871.02 455.58 C 872.25 456.22, 872.66 456.92, 873.61 456.89 C 874.57 456.87, 875.53 456.52, 875.79 455.45" style="stroke: black; fill: black;"/><path d="M 891.71,453.51 C 891.12 454.22, 891.21 454.83, 891.10 456.21 C 890.99 457.60, 891.01 458.42, 891.15 460.43 C 891.28 462.43, 891.44 463.85, 891.77 466.23 C 892.10 468.60, 892.42 470.12, 892.80 472.30 C 893.17 474.48, 893.01 475.53, 893.63 477.14 C 894.24 478.75, 894.69 479.71, 895.87 480.35 C 897.05 481.00, 898.14 481.07, 899.52 480.36 C 900.91 479.64, 901.60 478.75, 902.79 476.79 C 903.97 474.84, 904.21 473.26, 905.43 470.58 C 906.65 467.91, 907.12 466.05, 908.87 463.42 C 910.62 460.78, 911.83 459.42, 914.18 457.41 C 916.54 455.41, 918.02 454.60, 920.63 453.39 C 923.24 452.18, 924.65 451.82, 927.24 451.37 C 929.84 450.91, 931.27 450.87, 933.61 451.11 C 935.96 451.35, 937.07 451.57, 938.98 452.58 C 940.88 453.60, 941.65 454.39, 943.12 456.18 C 944.60 457.97, 945.32 459.13, 946.35 461.55 C 947.37 463.97, 947.62 465.41, 948.25 468.26 C 948.87 471.11, 948.77 472.86, 949.45 475.80 C 950.14 478.75, 950.61 481.61, 951.65 482.98 C 952.69 484.35, 953.96 484.23, 954.67 482.64 C 955.38 481.06, 955.33 478.17, 955.21 475.04 C 955.09 471.92, 954.72 470.21, 954.07 467.03 C 953.41 463.85, 953.22 462.10, 951.94 459.15 C 950.66 456.20, 949.74 454.60, 947.68 452.27 C 945.62 449.94, 944.33 448.91, 941.64 447.51 C 938.95 446.12, 937.34 445.63, 934.24 445.29 C 931.15 444.94, 929.37 445.15, 926.19 445.79 C 923.00 446.43, 921.41 447.00, 918.32 448.49 C 915.23 449.97, 913.56 450.95, 910.72 453.22 C 907.89 455.49, 906.52 457.04, 904.15 459.83 C 901.78 462.62, 900.54 464.35, 898.89 467.17 C 897.24 469.99, 896.46 471.69, 895.90 473.94 C 895.34 476.19, 895.71 477.36, 896.10 478.43 C 896.48 479.50, 897.17 479.61, 897.81 479.28 C 898.45 478.95, 898.89 478.26, 899.30 476.77 C 899.72 475.28, 899.82 474.14, 899.90 471.83 C 899.97 469.52, 899.97 467.79, 899.68 465.23 C 899.40 462.67, 899.11 461.15, 898.46 459.03 C 897.81 456.92, 897.32 455.95, 896.43 454.67 C 895.55 453.39, 894.99 452.86, 894.05 452.63 C 893.10 452.40, 892.30 452.79, 891.71 453.51" style="stroke: black; fill: black;"/><path d="M 1118.16,400.10 C 1118.44 399.09, 1118.44 397.92, 1117.40 396.47 C 1116.36 395.03, 1115.34 393.87, 1112.98 392.88 C 1110.63 391.90, 1108.93 391.31, 1105.63 391.56 C 1102.33 391.81, 1100.40 392.53, 1096.48 394.14 C 1092.56 395.74, 1090.47 396.80, 1086.02 399.57 C 1081.57 402.35, 1079.03 404.15, 1074.23 408.01 C 1069.43 411.87, 1066.73 414.23, 1062.03 418.86 C 1057.33 423.49, 1054.73 426.13, 1050.73 431.18 C 1046.73 436.22, 1044.69 439.04, 1042.03 444.10 C 1039.36 449.17, 1038.26 451.84, 1037.40 456.52 C 1036.54 461.21, 1036.46 463.59, 1037.73 467.54 C 1039.01 471.49, 1040.40 473.44, 1043.77 476.28 C 1047.14 479.11, 1049.71 480.23, 1054.60 481.72 C 1059.49 483.20, 1062.43 483.47, 1068.23 483.70 C 1074.03 483.93, 1077.31 483.66, 1083.60 482.88 C 1089.88 482.09, 1093.50 481.37, 1099.66 479.78 C 1105.83 478.19, 1108.92 477.05, 1114.41 474.92 C 1119.91 472.78, 1122.61 471.56, 1127.13 469.13 C 1131.64 466.69, 1133.73 465.31, 1136.99 462.74 C 1140.25 460.17, 1141.70 458.93, 1143.42 456.28 C 1145.14 453.63, 1145.54 452.04, 1145.58 449.49 C 1145.62 446.94, 1145.19 445.57, 1143.61 443.54 C 1142.04 441.52, 1140.64 440.54, 1137.69 439.37 C 1134.74 438.19, 1132.78 438.05, 1128.86 437.67 C 1124.95 437.28, 1122.48 437.39, 1118.12 437.44 C 1113.76 437.49, 1111.28 437.73, 1107.07 437.91 C 1102.87 438.10, 1100.65 438.10, 1097.09 438.35 C 1093.53 438.60, 1091.67 438.44, 1089.26 439.17 C 1086.85 439.90, 1085.81 440.72, 1085.04 441.98 C 1084.27 443.25, 1084.24 444.31, 1085.42 445.49 C 1086.59 446.67, 1087.97 447.47, 1090.92 447.89 C 1093.86 448.32, 1096.00 447.76, 1100.13 447.59 C 1104.27 447.43, 1107.09 447.12, 1111.61 447.05 C 1116.12 446.97, 1118.51 447.04, 1122.70 447.23 C 1126.88 447.42, 1129.18 447.58, 1132.54 448.00 C 1135.90 448.42, 1137.21 448.92, 1139.49 449.34 C 1141.77 449.76, 1142.58 449.83, 1143.94 450.09 C 1145.30 450.36, 1145.51 450.49, 1146.28 450.68 C 1147.04 450.86, 1147.21 451.01, 1147.75 451.01 C 1148.28 451.02, 1148.63 451.11, 1148.97 450.70 C 1149.31 450.30, 1149.47 449.50, 1149.45 449.00 C 1149.42 448.50, 1149.20 448.53, 1148.86 448.18 C 1148.51 447.84, 1148.45 447.74, 1147.73 447.29 C 1147.01 446.84, 1146.69 446.55, 1145.26 445.93 C 1143.82 445.31, 1142.99 444.77, 1140.55 444.21 C 1138.11 443.66, 1136.58 443.43, 1133.04 443.15 C 1129.51 442.86, 1127.15 442.93, 1122.87 442.78 C 1118.60 442.64, 1116.19 442.60, 1111.66 442.41 C 1107.14 442.22, 1104.30 442.14, 1100.23 441.84 C 1096.16 441.53, 1094.12 440.79, 1091.31 440.88 C 1088.49 440.98, 1087.19 441.67, 1086.16 442.34 C 1085.13 443.00, 1085.34 443.74, 1086.16 444.20 C 1086.99 444.65, 1088.01 444.77, 1090.29 444.60 C 1092.57 444.44, 1094.17 443.79, 1097.57 443.38 C 1100.97 442.96, 1103.20 442.76, 1107.30 442.53 C 1111.41 442.29, 1113.92 442.11, 1118.09 442.22 C 1122.26 442.32, 1124.65 442.45, 1128.15 443.04 C 1131.66 443.64, 1133.19 444.46, 1135.62 445.19 C 1138.05 445.93, 1139.15 445.93, 1140.30 446.73 C 1141.45 447.54, 1141.59 447.86, 1141.38 449.23 C 1141.18 450.60, 1140.67 451.47, 1139.28 453.57 C 1137.89 455.66, 1137.18 457.18, 1134.42 459.71 C 1131.66 462.24, 1129.71 463.73, 1125.49 466.21 C 1121.26 468.68, 1118.61 469.95, 1113.30 472.09 C 1107.98 474.23, 1104.94 475.37, 1098.92 476.92 C 1092.91 478.47, 1089.34 479.15, 1083.24 479.84 C 1077.13 480.53, 1073.91 480.70, 1068.40 480.38 C 1062.89 480.06, 1060.12 479.63, 1055.68 478.22 C 1051.24 476.82, 1049.09 475.71, 1046.20 473.35 C 1043.31 470.98, 1042.32 469.63, 1041.23 466.39 C 1040.14 463.14, 1040.04 461.29, 1040.74 457.11 C 1041.45 452.94, 1042.30 450.35, 1044.76 445.52 C 1047.21 440.69, 1049.15 437.89, 1053.01 432.98 C 1056.88 428.07, 1059.45 425.46, 1064.10 420.98 C 1068.74 416.50, 1071.46 414.20, 1076.23 410.58 C 1081.01 406.97, 1083.60 405.27, 1087.96 402.90 C 1092.33 400.53, 1094.47 399.69, 1098.05 398.73 C 1101.63 397.76, 1103.32 398.02, 1105.85 398.07 C 1108.38 398.13, 1109.13 398.53, 1110.69 399.01 C 1112.26 399.49, 1112.61 399.98, 1113.67 400.49 C 1114.74 400.99, 1115.10 401.61, 1116.00 401.53 C 1116.89 401.46, 1117.88 401.11, 1118.16 400.10" style="stroke: black; fill: black;"/><path d="M 1207.66,446.93 C 1207.85 445.89, 1207.66 444.83, 1206.56 443.32 C 1205.45 441.81, 1204.60 440.58, 1202.16 439.37 C 1199.71 438.16, 1197.77 437.58, 1194.34 437.27 C 1190.91 436.96, 1188.90 437.14, 1185.00 437.81 C 1181.11 438.47, 1178.81 439.07, 1174.85 440.58 C 1170.89 442.09, 1168.68 443.18, 1165.21 445.36 C 1161.74 447.54, 1159.89 448.88, 1157.50 451.48 C 1155.10 454.08, 1154.08 455.62, 1153.22 458.35 C 1152.35 461.07, 1152.45 462.72, 1153.16 465.11 C 1153.87 467.51, 1154.77 468.78, 1156.77 470.33 C 1158.77 471.88, 1160.35 472.44, 1163.17 472.86 C 1165.98 473.28, 1167.73 473.20, 1170.87 472.41 C 1174.00 471.62, 1175.61 470.69, 1178.84 468.92 C 1182.08 467.15, 1183.85 465.81, 1187.04 463.56 C 1190.22 461.31, 1191.96 459.96, 1194.78 457.65 C 1197.59 455.35, 1199.28 453.98, 1201.13 452.02 C 1202.97 450.05, 1203.36 448.78, 1204.02 447.83 C 1204.68 446.88, 1204.51 446.71, 1204.42 447.27 C 1204.33 447.82, 1203.82 448.64, 1203.57 450.60 C 1203.33 452.57, 1203.09 454.23, 1203.19 457.08 C 1203.29 459.92, 1203.61 461.85, 1204.08 464.82 C 1204.54 467.78, 1204.75 469.39, 1205.50 471.89 C 1206.25 474.40, 1206.73 475.69, 1207.82 477.33 C 1208.92 478.98, 1209.83 479.54, 1210.96 480.12 C 1212.10 480.71, 1212.86 480.54, 1213.49 480.27 C 1214.13 480.00, 1214.16 479.33, 1214.14 478.78 C 1214.12 478.23, 1213.69 478.24, 1213.38 477.50 C 1213.07 476.76, 1212.94 476.47, 1212.60 475.08 C 1212.25 473.69, 1211.95 472.74, 1211.67 470.54 C 1211.39 468.34, 1211.32 466.89, 1211.19 464.09 C 1211.07 461.30, 1211.31 459.44, 1211.04 456.56 C 1210.76 453.69, 1210.68 451.97, 1209.82 449.70 C 1208.97 447.42, 1208.27 446.25, 1206.74 445.19 C 1205.20 444.14, 1204.12 443.94, 1202.16 444.41 C 1200.20 444.89, 1199.10 445.73, 1196.92 447.57 C 1194.74 449.40, 1193.85 451.25, 1191.28 453.60 C 1188.70 455.95, 1187.05 457.23, 1184.06 459.30 C 1181.06 461.37, 1179.23 462.57, 1176.30 463.95 C 1173.37 465.33, 1171.91 465.67, 1169.40 466.21 C 1166.89 466.76, 1165.72 466.71, 1163.76 466.67 C 1161.79 466.63, 1160.82 466.58, 1159.59 466.01 C 1158.35 465.45, 1157.88 465.04, 1157.57 463.85 C 1157.25 462.67, 1157.27 461.85, 1158.02 460.08 C 1158.78 458.31, 1159.38 457.15, 1161.34 455.02 C 1163.30 452.90, 1164.78 451.43, 1167.82 449.45 C 1170.86 447.46, 1172.95 446.39, 1176.52 445.12 C 1180.10 443.85, 1182.30 443.39, 1185.69 443.11 C 1189.08 442.82, 1190.74 443.18, 1193.46 443.70 C 1196.19 444.23, 1197.41 444.98, 1199.32 445.72 C 1201.22 446.46, 1201.73 446.82, 1202.99 447.39 C 1204.25 447.95, 1204.70 448.62, 1205.64 448.53 C 1206.57 448.44, 1207.48 447.97, 1207.66 446.93" style="stroke: black; fill: black;"/><path d="M 1236.74,388.85 C 1236.19 389.41, 1236.07 389.55, 1235.91 391.03 C 1235.75 392.51, 1235.47 393.46, 1235.93 396.25 C 1236.40 399.03, 1237.50 400.90, 1238.22 404.95 C 1238.94 408.99, 1239.13 411.60, 1239.55 416.48 C 1239.96 421.35, 1240.07 424.24, 1240.29 429.32 C 1240.51 434.39, 1240.48 437.06, 1240.62 441.85 C 1240.77 446.65, 1240.73 449.09, 1241.02 453.31 C 1241.32 457.53, 1241.23 459.86, 1242.10 462.97 C 1242.96 466.07, 1243.78 467.47, 1245.34 468.83 C 1246.90 470.19, 1248.18 470.04, 1249.89 469.78 C 1251.61 469.51, 1252.94 468.73, 1253.93 467.50 C 1254.92 466.28, 1255.24 464.73, 1254.82 463.64 C 1254.40 462.55, 1252.89 461.95, 1251.83 462.05 C 1250.77 462.16, 1250.16 463.28, 1249.53 464.19 C 1248.91 465.10, 1248.98 466.13, 1248.71 466.61 C 1248.43 467.09, 1248.46 467.58, 1248.16 466.60 C 1247.85 465.61, 1247.78 464.45, 1247.19 461.70 C 1246.59 458.96, 1245.76 456.87, 1245.20 452.88 C 1244.64 448.88, 1244.62 446.44, 1244.39 441.71 C 1244.17 436.97, 1244.20 434.28, 1244.07 429.19 C 1243.94 424.10, 1243.88 421.21, 1243.76 416.25 C 1243.65 411.29, 1243.64 408.65, 1243.50 404.40 C 1243.36 400.14, 1243.61 397.88, 1243.05 394.97 C 1242.49 392.05, 1241.57 391.16, 1240.68 389.81 C 1239.80 388.46, 1239.42 388.43, 1238.63 388.24 C 1237.84 388.05, 1237.28 388.29, 1236.74 388.85" style="stroke: black; fill: black;"/><path d="M 1266.30,385.23 C 1265.55 385.90, 1265.22 386.48, 1264.87 388.50 C 1264.51 390.53, 1264.38 391.94, 1264.52 395.35 C 1264.67 398.75, 1265.21 401.11, 1265.60 405.52 C 1265.98 409.94, 1266.20 412.55, 1266.44 417.43 C 1266.68 422.30, 1266.68 424.92, 1266.80 429.90 C 1266.93 434.87, 1266.80 437.65, 1267.07 442.31 C 1267.33 446.97, 1267.68 449.28, 1268.11 453.21 C 1268.54 457.15, 1268.48 459.01, 1269.21 461.99 C 1269.95 464.96, 1270.62 466.19, 1271.79 468.09 C 1272.96 470.00, 1273.85 470.73, 1275.05 471.49 C 1276.24 472.25, 1277.07 472.09, 1277.76 471.90 C 1278.45 471.70, 1278.53 471.08, 1278.50 470.51 C 1278.46 469.93, 1278.06 469.94, 1277.60 469.00 C 1277.14 468.07, 1276.88 467.50, 1276.21 465.83 C 1275.54 464.15, 1275.02 463.29, 1274.26 460.64 C 1273.50 458.00, 1273.07 456.32, 1272.41 452.60 C 1271.75 448.88, 1271.31 446.60, 1270.94 442.05 C 1270.58 437.49, 1270.67 434.76, 1270.58 429.82 C 1270.49 424.87, 1270.52 422.21, 1270.50 417.32 C 1270.48 412.42, 1270.44 409.76, 1270.47 405.33 C 1270.51 400.90, 1270.72 398.55, 1270.67 395.17 C 1270.62 391.79, 1270.62 390.42, 1270.20 388.42 C 1269.78 386.42, 1269.37 385.80, 1268.59 385.16 C 1267.81 384.53, 1267.04 384.56, 1266.30 385.23" style="stroke: black; fill: black;"/><path d="M 1294.87,462.14 C 1295.66 462.69, 1296.38 462.85, 1297.91 462.66 C 1299.44 462.47, 1300.52 462.13, 1302.54 461.21 C 1304.57 460.29, 1305.76 459.61, 1308.05 458.07 C 1310.34 456.53, 1311.70 455.48, 1313.98 453.50 C 1316.27 451.53, 1317.62 450.33, 1319.46 448.18 C 1321.30 446.03, 1322.08 444.85, 1323.18 442.75 C 1324.28 440.66, 1324.80 439.69, 1324.96 437.70 C 1325.11 435.72, 1325.00 434.47, 1323.96 432.83 C 1322.91 431.20, 1321.87 430.28, 1319.73 429.52 C 1317.59 428.77, 1316.07 428.59, 1313.28 429.06 C 1310.48 429.54, 1308.78 430.20, 1305.77 431.90 C 1302.76 433.60, 1301.05 434.97, 1298.24 437.56 C 1295.43 440.14, 1293.87 441.80, 1291.72 444.82 C 1289.57 447.83, 1288.42 449.48, 1287.47 452.62 C 1286.52 455.77, 1286.39 457.57, 1286.97 460.54 C 1287.55 463.50, 1288.21 465.21, 1290.37 467.46 C 1292.53 469.70, 1294.26 470.59, 1297.75 471.76 C 1301.23 472.94, 1303.50 473.14, 1307.79 473.33 C 1312.09 473.53, 1314.52 473.39, 1319.22 472.74 C 1323.92 472.09, 1326.67 471.33, 1331.29 470.07 C 1335.90 468.81, 1338.23 468.14, 1342.29 466.45 C 1346.36 464.75, 1348.41 463.65, 1351.60 461.61 C 1354.80 459.57, 1356.55 458.30, 1358.27 456.26 C 1360.00 454.21, 1359.95 452.66, 1360.21 451.38 C 1360.47 450.11, 1359.81 450.22, 1359.57 449.89 C 1359.34 449.55, 1359.38 449.72, 1359.03 449.69 C 1358.68 449.67, 1358.79 449.23, 1357.83 449.76 C 1356.87 450.29, 1356.00 450.75, 1354.21 452.34 C 1352.43 453.93, 1351.62 455.66, 1348.91 457.72 C 1346.19 459.78, 1344.37 460.94, 1340.64 462.63 C 1336.90 464.32, 1334.62 464.99, 1330.23 466.17 C 1325.84 467.34, 1323.11 468.03, 1318.69 468.52 C 1314.27 469.00, 1311.96 468.97, 1308.12 468.61 C 1304.28 468.24, 1302.29 467.67, 1299.50 466.68 C 1296.70 465.70, 1295.64 465.08, 1294.15 463.68 C 1292.65 462.27, 1292.28 461.52, 1292.02 459.66 C 1291.76 457.80, 1292.01 456.70, 1292.84 454.37 C 1293.68 452.05, 1294.35 450.54, 1296.18 448.04 C 1298.02 445.54, 1299.48 443.94, 1302.00 441.86 C 1304.53 439.77, 1306.26 438.85, 1308.79 437.63 C 1311.33 436.40, 1312.71 436.26, 1314.68 435.74 C 1316.64 435.22, 1317.47 435.10, 1318.63 435.01 C 1319.79 434.92, 1320.14 434.92, 1320.50 435.27 C 1320.85 435.63, 1320.83 435.90, 1320.40 436.77 C 1319.97 437.63, 1319.51 438.23, 1318.35 439.60 C 1317.19 440.97, 1316.37 441.92, 1314.60 443.62 C 1312.83 445.31, 1311.65 446.41, 1309.52 448.05 C 1307.39 449.70, 1306.04 450.46, 1303.93 451.82 C 1301.83 453.17, 1300.67 453.67, 1298.98 454.82 C 1297.30 455.97, 1296.50 456.56, 1295.50 457.58 C 1294.51 458.59, 1294.11 458.98, 1293.99 459.89 C 1293.86 460.80, 1294.09 461.58, 1294.87 462.14" style="stroke: black; fill: black;"/><path d="M 1361.63,455.55 C 1360.74 456.02, 1360.52 456.79, 1359.98 457.86 C 1359.45 458.93, 1359.14 459.57, 1358.95 460.90 C 1358.76 462.22, 1358.45 463.36, 1359.05 464.50 C 1359.65 465.63, 1360.76 466.23, 1361.95 466.58 C 1363.15 466.92, 1363.93 466.87, 1365.03 466.23 C 1366.12 465.59, 1366.63 464.97, 1367.42 463.39 C 1368.21 461.81, 1368.45 460.57, 1368.99 458.31 C 1369.52 456.05, 1369.51 454.46, 1370.09 452.09 C 1370.67 449.72, 1371.00 448.47, 1371.88 446.46 C 1372.76 444.45, 1373.31 443.54, 1374.50 442.06 C 1375.69 440.57, 1376.37 439.91, 1377.82 439.04 C 1379.27 438.16, 1380.01 437.96, 1381.74 437.66 C 1383.47 437.37, 1384.36 437.47, 1386.47 437.57 C 1388.58 437.68, 1390.03 438.01, 1392.30 438.19 C 1394.57 438.36, 1395.87 438.60, 1397.81 438.44 C 1399.75 438.29, 1401.11 438.09, 1402.02 437.43 C 1402.93 436.76, 1403.04 436.03, 1402.38 435.12 C 1401.73 434.21, 1400.60 433.67, 1398.74 432.88 C 1396.89 432.09, 1395.57 431.53, 1393.09 431.17 C 1390.62 430.81, 1388.90 430.89, 1386.37 431.07 C 1383.85 431.24, 1382.77 431.44, 1380.47 432.05 C 1378.18 432.66, 1376.99 432.91, 1374.90 434.13 C 1372.82 435.35, 1371.78 436.29, 1370.04 438.16 C 1368.30 440.04, 1367.59 441.17, 1366.20 443.49 C 1364.82 445.81, 1364.20 447.20, 1363.12 449.75 C 1362.05 452.30, 1361.48 453.86, 1360.84 456.25 C 1360.20 458.64, 1359.91 459.91, 1359.94 461.70 C 1359.97 463.50, 1360.27 464.39, 1360.99 465.23 C 1361.72 466.06, 1362.59 466.04, 1363.58 465.88 C 1364.56 465.73, 1365.31 465.29, 1365.90 464.44 C 1366.48 463.59, 1366.43 462.86, 1366.50 461.62 C 1366.56 460.38, 1366.60 459.44, 1366.20 458.22 C 1365.80 457.00, 1365.39 456.04, 1364.48 455.51 C 1363.56 454.98, 1362.53 455.08, 1361.63 455.55" style="stroke: black; fill: black;"/><path d="M 1416.45,436.16 C 1415.88 436.85, 1415.73 437.55, 1415.87 438.77 C 1416.02 440.00, 1416.33 440.74, 1417.19 442.28 C 1418.04 443.83, 1418.64 444.82, 1420.15 446.49 C 1421.65 448.16, 1422.72 449.07, 1424.72 450.63 C 1426.72 452.20, 1427.83 453.00, 1430.13 454.33 C 1432.42 455.66, 1433.65 456.31, 1436.19 457.29 C 1438.74 458.27, 1440.06 458.77, 1442.86 459.25 C 1445.67 459.72, 1447.28 459.85, 1450.23 459.67 C 1453.18 459.50, 1454.67 459.21, 1457.61 458.38 C 1460.54 457.55, 1462.07 456.94, 1464.89 455.52 C 1467.71 454.10, 1469.45 453.17, 1471.71 451.30 C 1473.98 449.42, 1474.85 448.11, 1476.19 446.13 C 1477.53 444.15, 1477.97 443.06, 1478.42 441.39 C 1478.87 439.72, 1478.81 438.81, 1478.44 437.79 C 1478.08 436.76, 1477.49 436.43, 1476.59 436.28 C 1475.69 436.12, 1474.79 436.18, 1473.94 436.99 C 1473.10 437.81, 1472.61 438.52, 1472.34 440.34 C 1472.08 442.17, 1472.16 443.44, 1472.62 446.10 C 1473.08 448.76, 1473.87 450.27, 1474.64 453.63 C 1475.41 457.00, 1475.75 458.91, 1476.48 462.93 C 1477.22 466.94, 1477.76 469.21, 1478.32 473.71 C 1478.89 478.21, 1479.10 480.64, 1479.31 485.43 C 1479.52 490.22, 1479.61 492.84, 1479.37 497.67 C 1479.13 502.50, 1478.88 505.02, 1478.11 509.59 C 1477.33 514.17, 1476.80 516.57, 1475.50 520.54 C 1474.20 524.51, 1473.46 526.45, 1471.59 529.46 C 1469.73 532.46, 1468.62 533.56, 1466.19 535.56 C 1463.76 537.57, 1462.38 538.33, 1459.44 539.48 C 1456.50 540.64, 1454.84 540.98, 1451.51 541.33 C 1448.17 541.68, 1446.22 541.51, 1442.78 541.24 C 1439.33 540.97, 1437.48 540.73, 1434.27 539.96 C 1431.06 539.19, 1429.43 538.58, 1426.75 537.39 C 1424.07 536.21, 1422.88 535.46, 1420.88 534.04 C 1418.88 532.61, 1417.93 531.91, 1416.76 530.26 C 1415.59 528.60, 1415.40 527.57, 1415.02 525.75 C 1414.64 523.93, 1414.88 522.76, 1414.86 521.16 C 1414.83 519.57, 1414.86 519.01, 1414.90 517.77 C 1414.94 516.53, 1415.41 515.73, 1415.05 514.96 C 1414.68 514.19, 1414.00 513.64, 1413.08 513.91 C 1412.16 514.18, 1411.27 514.94, 1410.45 516.32 C 1409.63 517.70, 1409.23 518.67, 1408.99 520.82 C 1408.75 522.98, 1408.60 524.56, 1409.23 527.10 C 1409.86 529.64, 1410.49 531.20, 1412.15 533.53 C 1413.81 535.86, 1415.04 536.98, 1417.54 538.74 C 1420.05 540.51, 1421.55 541.12, 1424.67 542.36 C 1427.79 543.60, 1429.59 544.17, 1433.14 544.94 C 1436.69 545.70, 1438.63 545.94, 1442.41 546.19 C 1446.20 546.45, 1448.30 546.67, 1452.06 546.21 C 1455.83 545.75, 1457.83 545.35, 1461.25 543.91 C 1464.66 542.47, 1466.34 541.48, 1469.14 539.02 C 1471.94 536.57, 1473.21 535.11, 1475.23 531.65 C 1477.26 528.19, 1477.95 526.02, 1479.27 521.73 C 1480.58 517.44, 1481.04 514.97, 1481.80 510.20 C 1482.56 505.42, 1482.79 502.84, 1483.06 497.86 C 1483.32 492.88, 1483.25 490.22, 1483.13 485.30 C 1483.01 480.38, 1482.83 477.89, 1482.46 473.28 C 1482.08 468.68, 1481.62 466.37, 1481.23 462.27 C 1480.85 458.17, 1480.73 456.23, 1480.54 452.80 C 1480.35 449.37, 1480.48 447.67, 1480.28 445.13 C 1480.09 442.59, 1479.93 441.65, 1479.55 440.10 C 1479.17 438.55, 1479.11 438.09, 1478.39 437.38 C 1477.68 436.66, 1476.79 436.48, 1475.97 436.52 C 1475.15 436.56, 1474.74 436.93, 1474.28 437.56 C 1473.82 438.19, 1474.22 438.65, 1473.69 439.65 C 1473.16 440.65, 1472.82 441.27, 1471.61 442.58 C 1470.40 443.89, 1469.57 444.74, 1467.65 446.19 C 1465.73 447.64, 1464.35 448.61, 1461.99 449.83 C 1459.63 451.05, 1458.28 451.59, 1455.85 452.30 C 1453.42 453.02, 1452.23 453.26, 1449.85 453.41 C 1447.46 453.57, 1446.18 453.47, 1443.92 453.07 C 1441.66 452.68, 1440.60 452.32, 1438.53 451.45 C 1436.46 450.58, 1435.44 449.96, 1433.57 448.73 C 1431.71 447.50, 1430.77 446.74, 1429.21 445.31 C 1427.65 443.88, 1427.00 443.04, 1425.78 441.58 C 1424.57 440.13, 1424.17 439.14, 1423.13 438.03 C 1422.09 436.92, 1421.46 436.59, 1420.58 436.04 C 1419.69 435.49, 1419.53 435.26, 1418.71 435.29 C 1417.88 435.31, 1417.02 435.46, 1416.45 436.16" style="stroke: black; fill: black;"/></svg>